<svg width="546" height="556" viewBox="0 0 546 556" fill="none" xmlns="http://www.w3.org/2000/svg">
<path d="M56.3916 113.45C66.383 88.2652 85.9319 68.2721 110.613 57.9959L231.749 7.56031C256.051 -2.55776 283.322 -2.41919 307.564 7.94558L432.01 61.1534C455.883 71.3601 474.908 90.668 485.018 114.949L537.724 241.528C547.991 266.186 548.232 293.968 538.394 318.765L489.356 442.371C479.365 467.555 459.816 487.549 435.135 497.825L313.998 548.26C289.697 558.378 262.426 558.24 238.184 547.875L113.737 494.667C89.8651 484.46 70.8401 465.153 60.7296 440.871L8.02384 314.292C-2.24314 289.635 -2.48429 261.852 7.35344 237.055L56.3916 113.45Z" fill="#D9D9D9"/>
</svg>
