<svg width="546" height="557" viewBox="0 0 546 557" fill="none" xmlns="http://www.w3.org/2000/svg">
<path d="M56.6121 113.982C66.6036 88.7974 86.1524 68.8043 110.834 58.5281L231.97 8.09253C256.272 -2.02554 283.542 -1.88698 307.784 8.4778L432.231 61.6856C456.103 71.8924 475.128 91.2002 485.239 115.482L537.945 242.06C548.211 266.718 548.453 294.5 538.615 319.297L489.577 442.903C479.585 468.088 460.036 488.081 435.355 498.357L314.219 548.793C289.917 558.911 262.646 558.772 238.405 548.407L113.958 495.199C90.0856 484.993 71.0606 465.685 60.9502 441.403L8.24439 314.825C-2.02259 290.167 -2.26374 262.385 7.57399 237.588L56.6121 113.982Z" fill="#FA5300" fill-opacity="0.6"/>
</svg>
