<svg width="546" height="557" viewBox="0 0 546 557" fill="none" xmlns="http://www.w3.org/2000/svg">
<path d="M56.3187 114.041C66.3102 88.8564 85.859 68.8633 110.54 58.5871L231.677 8.15154C255.978 -1.96653 283.249 -1.82796 307.491 8.53681L431.937 61.7446C455.81 71.9514 474.835 91.2592 484.945 115.541L537.651 242.119C547.918 266.777 548.159 294.559 538.321 319.356L489.283 442.962C479.292 468.147 459.743 488.14 435.062 498.416L313.926 548.852C289.624 558.97 262.353 558.831 238.111 548.466L113.665 495.258C89.7922 485.052 70.7672 465.744 60.6568 441.462L7.951 314.884C-2.31598 290.226 -2.55713 262.444 7.2806 237.647L56.3187 114.041Z" fill="#D9D9D9" fill-opacity="0.8"/>
</svg>
